{
	"asset":{
		"generator":"Khronos glTF Blender I/O v4.1.63",
		"version":"2.0"
	},
	"scene":0,
	"scenes":[
		{
			"name":"Scene",
			"nodes":[
				0
			]
		}
	],
	"nodes":[
		{
			"mesh":0,
			"name":"GRIPPER_MODEL_LITE",
			"rotation":[
				0,
				-1,
				0,
				4.371138828673793e-08
			],
			"translation":[
				0,
				-0.003000000026077032,
				0.12399999797344208
			]
		}
	],
	"materials":[
		{
			"doubleSided":true,
			"name":"mat_0",
			"pbrMetallicRoughness":{
				"baseColorFactor":[
					0.7230551242828369,
					0.7230551242828369,
					0.7681511640548706,
					1
				],
				"metallicFactor":0.5,
				"roughnessFactor":0.5
			}
		},
		{
			"doubleSided":true,
			"name":"mat_1",
			"pbrMetallicRoughness":{
				"baseColorFactor":[
					0.009721217676997185,
					0.009721217676997185,
					0.009721217676997185,
					1
				],
				"metallicFactor":0.5,
				"roughnessFactor":0.5
			}
		},
		{
			"doubleSided":true,
			"name":"mat_2",
			"pbrMetallicRoughness":{
				"baseColorFactor":[
					0.68668532371521,
					0.7011018991470337,
					0.693871796131134,
					1
				],
				"metallicFactor":0.5,
				"roughnessFactor":0.5
			}
		},
		{
			"doubleSided":true,
			"name":"mat_3",
			"pbrMetallicRoughness":{
				"baseColorFactor":[
					0.7011018991470337,
					0.68668532371521,
					0.693871796131134,
					1
				],
				"metallicFactor":0.5,
				"roughnessFactor":0.5
			}
		},
		{
			"doubleSided":true,
			"name":"mat_4",
			"pbrMetallicRoughness":{
				"baseColorFactor":[
					0,
					0,
					0.2158605307340622,
					1
				],
				"metallicFactor":0.5,
				"roughnessFactor":0.5
			}
		}
	],
	"meshes":[
		{
			"name":"GRIPPER_MODEL_LITE",
			"primitives":[
				{
					"attributes":{
						"POSITION":0,
						"NORMAL":1
					},
					"indices":2,
					"material":0
				},
				{
					"attributes":{
						"POSITION":3,
						"NORMAL":4
					},
					"indices":5,
					"material":1
				},
				{
					"attributes":{
						"POSITION":6,
						"NORMAL":7
					},
					"indices":8,
					"material":2
				},
				{
					"attributes":{
						"POSITION":9,
						"NORMAL":10
					},
					"indices":11,
					"material":3
				},
				{
					"attributes":{
						"POSITION":12,
						"NORMAL":13
					},
					"indices":14,
					"material":4
				}
			]
		}
	],
	"accessors":[
		{
			"bufferView":0,
			"componentType":5126,
			"count":108,
			"max":[
				0.03214779123663902,
				-0.0011999979615211487,
				-0.04885447025299072
			],
			"min":[
				-0.032147664576768875,
				-0.01130000501871109,
				-0.05214667320251465
			],
			"type":"VEC3"
		},
		{
			"bufferView":1,
			"componentType":5126,
			"count":108,
			"type":"VEC3"
		},
		{
			"bufferView":2,
			"componentType":5123,
			"count":312,
			"type":"SCALAR"
		},
		{
			"bufferView":3,
			"componentType":5126,
			"count":2314,
			"max":[
				0.03449464216828346,
				0.018199995160102844,
				-0.04650241136550903
			],
			"min":[
				-0.034498006105422974,
				-0.012199997901916504,
				-0.05449867248535156
			],
			"type":"VEC3"
		},
		{
			"bufferView":4,
			"componentType":5126,
			"count":2314,
			"type":"VEC3"
		},
		{
			"bufferView":5,
			"componentType":5123,
			"count":7722,
			"type":"SCALAR"
		},
		{
			"bufferView":6,
			"componentType":5126,
			"count":20583,
			"max":[
				0.055250104516744614,
				0.033794764429330826,
				0.017499446868896484
			],
			"min":[
				-0.0552498959004879,
				-0.027794770896434784,
				-0.05800056457519531
			],
			"type":"VEC3"
		},
		{
			"bufferView":7,
			"componentType":5126,
			"count":20583,
			"type":"VEC3"
		},
		{
			"bufferView":8,
			"componentType":5123,
			"count":68931,
			"type":"SCALAR"
		},
		{
			"bufferView":9,
			"componentType":5126,
			"count":10240,
			"max":[
				0.03274993970990181,
				0.0359945148229599,
				0.019249439239501953
			],
			"min":[
				-0.0327497236430645,
				-0.02999451756477356,
				-0.05023050308227539
			],
			"type":"VEC3"
		},
		{
			"bufferView":10,
			"componentType":5126,
			"count":10240,
			"type":"VEC3"
		},
		{
			"bufferView":11,
			"componentType":5123,
			"count":27588,
			"type":"SCALAR"
		},
		{
			"bufferView":12,
			"componentType":5126,
			"count":5176,
			"max":[
				0.02369307354092598,
				0.02499530464410782,
				-0.032982587814331055
			],
			"min":[
				-0.023692861199378967,
				-0.01899530738592148,
				-0.05813676118850708
			],
			"type":"VEC3"
		},
		{
			"bufferView":13,
			"componentType":5126,
			"count":5176,
			"type":"VEC3"
		},
		{
			"bufferView":14,
			"componentType":5123,
			"count":13872,
			"type":"SCALAR"
		}
	],
	"bufferViews":[
		{
			"buffer":0,
			"byteLength":1296,
			"byteOffset":0,
			"target":34962
		},
		{
			"buffer":0,
			"byteLength":1296,
			"byteOffset":1296,
			"target":34962
		},
		{
			"buffer":0,
			"byteLength":624,
			"byteOffset":2592,
			"target":34963
		},
		{
			"buffer":0,
			"byteLength":27768,
			"byteOffset":3216,
			"target":34962
		},
		{
			"buffer":0,
			"byteLength":27768,
			"byteOffset":30984,
			"target":34962
		},
		{
			"buffer":0,
			"byteLength":15444,
			"byteOffset":58752,
			"target":34963
		},
		{
			"buffer":0,
			"byteLength":246996,
			"byteOffset":74196,
			"target":34962
		},
		{
			"buffer":0,
			"byteLength":246996,
			"byteOffset":321192,
			"target":34962
		},
		{
			"buffer":0,
			"byteLength":137862,
			"byteOffset":568188,
			"target":34963
		},
		{
			"buffer":0,
			"byteLength":122880,
			"byteOffset":706052,
			"target":34962
		},
		{
			"buffer":0,
			"byteLength":122880,
			"byteOffset":828932,
			"target":34962
		},
		{
			"buffer":0,
			"byteLength":55176,
			"byteOffset":951812,
			"target":34963
		},
		{
			"buffer":0,
			"byteLength":62112,
			"byteOffset":1006988,
			"target":34962
		},
		{
			"buffer":0,
			"byteLength":62112,
			"byteOffset":1069100,
			"target":34962
		},
		{
			"buffer":0,
			"byteLength":27744,
			"byteOffset":1131212,
			"target":34963
		}
	],
	"buffers":[
		{
			"byteLength":1158956,
			"uri":"Gen3Lite_j5.bin"
		}
	]
}
