{
	"asset":{
		"generator":"Khronos glTF Blender I/O v4.1.63",
		"version":"2.0"
	},
	"scene":0,
	"scenes":[
		{
			"name":"Scene",
			"nodes":[
				0
			]
		}
	],
	"nodes":[
		{
			"mesh":0,
			"name":"SHELL"
		}
	],
	"materials":[
		{
			"doubleSided":true,
			"name":"mat_0",
			"pbrMetallicRoughness":{
				"baseColorFactor":[
					0.011612244881689548,
					0.011612244881689548,
					0.011612244881689548,
					1
				],
				"metallicFactor":0.5,
				"roughnessFactor":0.5
			}
		},
		{
			"doubleSided":true,
			"name":"mat_1",
			"pbrMetallicRoughness":{
				"baseColorFactor":[
					0.7011018991470337,
					0.68668532371521,
					0.693871796131134,
					1
				],
				"metallicFactor":0.5,
				"roughnessFactor":0.5
			}
		},
		{
			"doubleSided":true,
			"name":"mat_2",
			"pbrMetallicRoughness":{
				"baseColorFactor":[
					0.5906188488006592,
					0.6375969052314758,
					0.8549926280975342,
					1
				],
				"metallicFactor":0.5,
				"roughnessFactor":0.5
			}
		},
		{
			"doubleSided":true,
			"name":"mat_3",
			"pbrMetallicRoughness":{
				"baseColorFactor":[
					0.7230551242828369,
					0.7230551242828369,
					0.7681511640548706,
					1
				],
				"metallicFactor":0.5,
				"roughnessFactor":0.5
			}
		},
		{
			"doubleSided":true,
			"name":"mat_4",
			"pbrMetallicRoughness":{
				"baseColorFactor":[
					0.009721217676997185,
					0.009721217676997185,
					0.009721217676997185,
					1
				],
				"metallicFactor":0.5,
				"roughnessFactor":0.5
			}
		},
		{
			"doubleSided":true,
			"name":"mat_5",
			"pbrMetallicRoughness":{
				"baseColorFactor":[
					0.6038273572921753,
					0.6239604353904724,
					0.6038273572921753,
					1
				],
				"metallicFactor":0.5,
				"roughnessFactor":0.5
			}
		}
	],
	"meshes":[
		{
			"name":"SHELL",
			"primitives":[
				{
					"attributes":{
						"POSITION":0,
						"NORMAL":1
					},
					"indices":2,
					"material":0
				},
				{
					"attributes":{
						"POSITION":3,
						"NORMAL":4
					},
					"indices":5,
					"material":1
				},
				{
					"attributes":{
						"POSITION":6,
						"NORMAL":7
					},
					"indices":8,
					"material":2
				},
				{
					"attributes":{
						"POSITION":9,
						"NORMAL":10
					},
					"indices":11,
					"material":3
				},
				{
					"attributes":{
						"POSITION":12,
						"NORMAL":13
					},
					"indices":14,
					"material":4
				},
				{
					"attributes":{
						"POSITION":15,
						"NORMAL":16
					},
					"indices":17,
					"material":5
				}
			]
		}
	],
	"accessors":[
		{
			"bufferView":0,
			"componentType":5126,
			"count":8839,
			"max":[
				0.023236006498336792,
				0.07160109281539917,
				-0.012700012885034084
			],
			"min":[
				0.0002620573795866221,
				0.04865317419171333,
				-0.033500224351882935
			],
			"type":"VEC3"
		},
		{
			"bufferView":1,
			"componentType":5126,
			"count":8839,
			"type":"VEC3"
		},
		{
			"bufferView":2,
			"componentType":5123,
			"count":20589,
			"type":"SCALAR"
		},
		{
			"bufferView":3,
			"componentType":5126,
			"count":11541,
			"max":[
				0.039500001817941666,
				0.12824997305870056,
				0.03989763185381889
			],
			"min":[
				-0.039500001817941666,
				0.0010820520110428333,
				-0.039500027894973755
			],
			"type":"VEC3"
		},
		{
			"bufferView":4,
			"componentType":5126,
			"count":11541,
			"type":"VEC3"
		},
		{
			"bufferView":5,
			"componentType":5123,
			"count":35268,
			"type":"SCALAR"
		},
		{
			"bufferView":6,
			"componentType":5126,
			"count":12311,
			"max":[
				0.030495956540107727,
				0.07305573672056198,
				-0.00953769776970148
			],
			"min":[
				-0.03129495307803154,
				0.023580357432365417,
				-0.028000017628073692
			],
			"type":"VEC3"
		},
		{
			"bufferView":7,
			"componentType":5126,
			"count":12311,
			"type":"VEC3"
		},
		{
			"bufferView":8,
			"componentType":5123,
			"count":32844,
			"type":"SCALAR"
		},
		{
			"bufferView":9,
			"componentType":5126,
			"count":162,
			"max":[
				0.023375211283564568,
				0.008000005036592484,
				0.023399995639920235
			],
			"min":[
				-0.023375211283564568,
				-7.088941433863738e-09,
				-0.023399993777275085
			],
			"type":"VEC3"
		},
		{
			"bufferView":10,
			"componentType":5126,
			"count":162,
			"type":"VEC3"
		},
		{
			"bufferView":11,
			"componentType":5123,
			"count":468,
			"type":"SCALAR"
		},
		{
			"bufferView":12,
			"componentType":5126,
			"count":806,
			"max":[
				0.03737782686948776,
				0.010000008158385754,
				0.037499990314245224
			],
			"min":[
				-0.03737782686948776,
				-1.1168628688551507e-08,
				-0.037499990314245224
			],
			"type":"VEC3"
		},
		{
			"bufferView":13,
			"componentType":5126,
			"count":806,
			"type":"VEC3"
		},
		{
			"bufferView":14,
			"componentType":5123,
			"count":2352,
			"type":"SCALAR"
		},
		{
			"bufferView":15,
			"componentType":5126,
			"count":23273,
			"max":[
				0.030998848378658295,
				0.07061097770929337,
				-0.008115297183394432
			],
			"min":[
				-0.03129495307803154,
				0.019856616854667664,
				-0.034512680023908615
			],
			"type":"VEC3"
		},
		{
			"bufferView":16,
			"componentType":5126,
			"count":23273,
			"type":"VEC3"
		},
		{
			"bufferView":17,
			"componentType":5123,
			"count":61662,
			"type":"SCALAR"
		}
	],
	"bufferViews":[
		{
			"buffer":0,
			"byteLength":106068,
			"byteOffset":0,
			"target":34962
		},
		{
			"buffer":0,
			"byteLength":106068,
			"byteOffset":106068,
			"target":34962
		},
		{
			"buffer":0,
			"byteLength":41178,
			"byteOffset":212136,
			"target":34963
		},
		{
			"buffer":0,
			"byteLength":138492,
			"byteOffset":253316,
			"target":34962
		},
		{
			"buffer":0,
			"byteLength":138492,
			"byteOffset":391808,
			"target":34962
		},
		{
			"buffer":0,
			"byteLength":70536,
			"byteOffset":530300,
			"target":34963
		},
		{
			"buffer":0,
			"byteLength":147732,
			"byteOffset":600836,
			"target":34962
		},
		{
			"buffer":0,
			"byteLength":147732,
			"byteOffset":748568,
			"target":34962
		},
		{
			"buffer":0,
			"byteLength":65688,
			"byteOffset":896300,
			"target":34963
		},
		{
			"buffer":0,
			"byteLength":1944,
			"byteOffset":961988,
			"target":34962
		},
		{
			"buffer":0,
			"byteLength":1944,
			"byteOffset":963932,
			"target":34962
		},
		{
			"buffer":0,
			"byteLength":936,
			"byteOffset":965876,
			"target":34963
		},
		{
			"buffer":0,
			"byteLength":9672,
			"byteOffset":966812,
			"target":34962
		},
		{
			"buffer":0,
			"byteLength":9672,
			"byteOffset":976484,
			"target":34962
		},
		{
			"buffer":0,
			"byteLength":4704,
			"byteOffset":986156,
			"target":34963
		},
		{
			"buffer":0,
			"byteLength":279276,
			"byteOffset":990860,
			"target":34962
		},
		{
			"buffer":0,
			"byteLength":279276,
			"byteOffset":1270136,
			"target":34962
		},
		{
			"buffer":0,
			"byteLength":123324,
			"byteOffset":1549412,
			"target":34963
		}
	],
	"buffers":[
		{
			"byteLength":1672736,
			"uri":"Gen3Lite_base.bin"
		}
	]
}
