{
	"asset":{
		"generator":"Khronos glTF Blender I/O v4.1.63",
		"version":"2.0"
	},
	"scene":0,
	"scenes":[
		{
			"name":"Scene",
			"nodes":[
				2
			]
		}
	],
	"nodes":[
		{
			"mesh":0,
			"name":"Fusion",
			"rotation":[
				-1,
				0,
				0,
				4.371138828673793e-08
			]
		},
		{
			"children":[
				0
			],
			"name":"GRIPPER_MODEL_LITE019"
		},
		{
			"children":[
				1
			],
			"name":"KinovaGen3Lite",
			"rotation":[
				0,
				-1,
				0,
				4.371138828673793e-08
			]
		}
	],
	"materials":[
		{
			"doubleSided":true,
			"name":"mat_0",
			"pbrMetallicRoughness":{
				"baseColorFactor":[
					0.5906188488006592,
					0.6375969052314758,
					0.8549926280975342,
					1
				],
				"metallicFactor":0.5,
				"roughnessFactor":0.5
			}
		},
		{
			"doubleSided":true,
			"name":"mat_1",
			"pbrMetallicRoughness":{
				"baseColorFactor":[
					0.68668532371521,
					0.7011018991470337,
					0.693871796131134,
					1
				],
				"metallicFactor":0.5,
				"roughnessFactor":0.5
			}
		},
		{
			"doubleSided":true,
			"name":"mat_2",
			"pbrMetallicRoughness":{
				"baseColorFactor":[
					0,
					0,
					0.2158605307340622,
					1
				],
				"metallicFactor":0.5,
				"roughnessFactor":0.5
			}
		}
	],
	"meshes":[
		{
			"name":"Fusion",
			"primitives":[
				{
					"attributes":{
						"POSITION":0,
						"NORMAL":1
					},
					"indices":2,
					"material":0
				},
				{
					"attributes":{
						"POSITION":3,
						"NORMAL":4
					},
					"indices":5,
					"material":1
				},
				{
					"attributes":{
						"POSITION":6,
						"NORMAL":7
					},
					"indices":8,
					"material":2
				}
			]
		}
	],
	"accessors":[
		{
			"bufferView":0,
			"componentType":5126,
			"count":25717,
			"max":[
				0.012054395861923695,
				0.011463915929198265,
				0.03796543926000595
			],
			"min":[
				-0.012045602314174175,
				-0.08388286083936691,
				-0.006007307209074497
			],
			"type":"VEC3"
		},
		{
			"bufferView":1,
			"componentType":5126,
			"count":25717,
			"type":"VEC3"
		},
		{
			"bufferView":2,
			"componentType":5123,
			"count":72744,
			"type":"SCALAR"
		},
		{
			"bufferView":3,
			"componentType":5126,
			"count":666,
			"max":[
				0.011788608506321907,
				0.007519190665334463,
				0.037535808980464935
			],
			"min":[
				-0.011812550947070122,
				-0.07159899920225143,
				-0.0050273472443223
			],
			"type":"VEC3"
		},
		{
			"bufferView":4,
			"componentType":5126,
			"count":666,
			"type":"VEC3"
		},
		{
			"bufferView":5,
			"componentType":5123,
			"count":1959,
			"type":"SCALAR"
		},
		{
			"bufferView":6,
			"componentType":5126,
			"count":3616,
			"max":[
				0.011780964210629463,
				-0.005560823250561953,
				0.026160184293985367
			],
			"min":[
				-0.011804910376667976,
				-0.08109577745199203,
				-0.0019773179665207863
			],
			"type":"VEC3"
		},
		{
			"bufferView":7,
			"componentType":5126,
			"count":3616,
			"type":"VEC3"
		},
		{
			"bufferView":8,
			"componentType":5123,
			"count":10809,
			"type":"SCALAR"
		}
	],
	"bufferViews":[
		{
			"buffer":0,
			"byteLength":308604,
			"byteOffset":0,
			"target":34962
		},
		{
			"buffer":0,
			"byteLength":308604,
			"byteOffset":308604,
			"target":34962
		},
		{
			"buffer":0,
			"byteLength":145488,
			"byteOffset":617208,
			"target":34963
		},
		{
			"buffer":0,
			"byteLength":7992,
			"byteOffset":762696,
			"target":34962
		},
		{
			"buffer":0,
			"byteLength":7992,
			"byteOffset":770688,
			"target":34962
		},
		{
			"buffer":0,
			"byteLength":3918,
			"byteOffset":778680,
			"target":34963
		},
		{
			"buffer":0,
			"byteLength":43392,
			"byteOffset":782600,
			"target":34962
		},
		{
			"buffer":0,
			"byteLength":43392,
			"byteOffset":825992,
			"target":34962
		},
		{
			"buffer":0,
			"byteLength":21618,
			"byteOffset":869384,
			"target":34963
		}
	],
	"buffers":[
		{
			"byteLength":891004,
			"uri":"Gen3Lite_j5_1.bin"
		}
	]
}
