{
	"asset":{
		"generator":"Khronos glTF Blender I/O v4.1.63",
		"version":"2.0"
	},
	"scene":0,
	"scenes":[
		{
			"name":"Scene",
			"nodes":[
				0
			]
		}
	],
	"nodes":[
		{
			"mesh":0,
			"name":"UPPER_WRIST_LITE"
		}
	],
	"materials":[
		{
			"doubleSided":true,
			"name":"mat_0",
			"pbrMetallicRoughness":{
				"baseColorFactor":[
					0.7011018991470337,
					0.68668532371521,
					0.693871796131134,
					1
				],
				"metallicFactor":0.5,
				"roughnessFactor":0.5
			}
		}
	],
	"meshes":[
		{
			"name":"UPPER_WRIST_LITE",
			"primitives":[
				{
					"attributes":{
						"POSITION":0,
						"NORMAL":1
					},
					"indices":2,
					"material":0
				}
			]
		}
	],
	"accessors":[
		{
			"bufferView":0,
			"componentType":5126,
			"count":2909,
			"max":[
				0.0897490382194519,
				0.03273921459913254,
				0.10475040227174759
			],
			"min":[
				0.0242504570633173,
				-0.03273032233119011,
				-0.03275447338819504
			],
			"type":"VEC3"
		},
		{
			"bufferView":1,
			"componentType":5126,
			"count":2909,
			"type":"VEC3"
		},
		{
			"bufferView":2,
			"componentType":5123,
			"count":11706,
			"type":"SCALAR"
		}
	],
	"bufferViews":[
		{
			"buffer":0,
			"byteLength":34908,
			"byteOffset":0,
			"target":34962
		},
		{
			"buffer":0,
			"byteLength":34908,
			"byteOffset":34908,
			"target":34962
		},
		{
			"buffer":0,
			"byteLength":23412,
			"byteOffset":69816,
			"target":34963
		}
	],
	"buffers":[
		{
			"byteLength":93228,
			"uri":"Gen3Lite_j4.bin"
		}
	]
}
