{
	"asset":{
		"generator":"Khronos glTF Blender I/O v4.1.63",
		"version":"2.0"
	},
	"scene":0,
	"scenes":[
		{
			"name":"Scene",
			"nodes":[
				1
			]
		}
	],
	"nodes":[
		{
			"mesh":0,
			"name":"SHOULDER_LITE"
		},
		{
			"children":[
				0
			],
			"name":"KinovaGen3Lite"
		}
	],
	"materials":[
		{
			"doubleSided":true,
			"name":"mat_1",
			"pbrMetallicRoughness":{
				"baseColorFactor":[
					0.7011018991470337,
					0.68668532371521,
					0.693871796131134,
					1
				],
				"metallicFactor":0.5,
				"roughnessFactor":0.5
			}
		}
	],
	"meshes":[
		{
			"name":"SHOULDER_LITE",
			"primitives":[
				{
					"attributes":{
						"POSITION":0,
						"NORMAL":1
					},
					"indices":2,
					"material":0
				}
			]
		}
	],
	"accessors":[
		{
			"bufferView":0,
			"componentType":5126,
			"count":1648,
			"max":[
				0.03949897363781929,
				0.28274932503700256,
				0.039447516202926636
			],
			"min":[
				-0.039499152451753616,
				0.12825001776218414,
				-0.039419982582330704
			],
			"type":"VEC3"
		},
		{
			"bufferView":1,
			"componentType":5126,
			"count":1648,
			"type":"VEC3"
		},
		{
			"bufferView":2,
			"componentType":5123,
			"count":6804,
			"type":"SCALAR"
		}
	],
	"bufferViews":[
		{
			"buffer":0,
			"byteLength":19776,
			"byteOffset":0,
			"target":34962
		},
		{
			"buffer":0,
			"byteLength":19776,
			"byteOffset":19776,
			"target":34962
		},
		{
			"buffer":0,
			"byteLength":13608,
			"byteOffset":39552,
			"target":34963
		}
	],
	"buffers":[
		{
			"byteLength":53160,
			"uri":"Gen3Lite_j0.bin"
		}
	]
}
