{
	"asset":{
		"generator":"Khronos glTF Blender I/O v4.1.63",
		"version":"2.0"
	},
	"scene":0,
	"scenes":[
		{
			"name":"Scene",
			"nodes":[
				0
			]
		}
	],
	"nodes":[
		{
			"mesh":0,
			"name":"Fusion"
		}
	],
	"materials":[
		{
			"doubleSided":true,
			"name":"mat_0",
			"pbrMetallicRoughness":{
				"baseColorFactor":[
					0.5906188488006592,
					0.6375969052314758,
					0.8549926280975342,
					1
				],
				"metallicFactor":0.5,
				"roughnessFactor":0.5
			}
		},
		{
			"doubleSided":true,
			"name":"mat_1",
			"pbrMetallicRoughness":{
				"baseColorFactor":[
					0.68668532371521,
					0.7011018991470337,
					0.693871796131134,
					1
				],
				"metallicFactor":0.5,
				"roughnessFactor":0.5
			}
		},
		{
			"doubleSided":true,
			"name":"mat_2",
			"pbrMetallicRoughness":{
				"baseColorFactor":[
					0,
					0,
					0.2158605307340622,
					1
				],
				"metallicFactor":0.5,
				"roughnessFactor":0.5
			}
		}
	],
	"meshes":[
		{
			"name":"Fusion",
			"primitives":[
				{
					"attributes":{
						"POSITION":0,
						"NORMAL":1
					},
					"indices":2,
					"material":0
				},
				{
					"attributes":{
						"POSITION":3,
						"NORMAL":4
					},
					"indices":5,
					"material":1
				},
				{
					"attributes":{
						"POSITION":6,
						"NORMAL":7
					},
					"indices":8,
					"material":2
				}
			]
		}
	],
	"accessors":[
		{
			"bufferView":0,
			"componentType":5126,
			"count":25838,
			"max":[
				0.026874905452132225,
				0.012045602314174175,
				0.08583219349384308
			],
			"min":[
				-0.007545727305114269,
				-0.012054395861923695,
				-0.006227437406778336
			],
			"type":"VEC3"
		},
		{
			"bufferView":1,
			"componentType":5126,
			"count":25838,
			"type":"VEC3"
		},
		{
			"bufferView":2,
			"componentType":5123,
			"count":72744,
			"type":"SCALAR"
		},
		{
			"bufferView":3,
			"componentType":5126,
			"count":669,
			"max":[
				0.025629298761487007,
				0.011812549084424973,
				0.07592520117759705
			],
			"min":[
				-0.005454718135297298,
				-0.011788610368967056,
				-0.00500061921775341
			],
			"type":"VEC3"
		},
		{
			"bufferView":4,
			"componentType":5126,
			"count":669,
			"type":"VEC3"
		},
		{
			"bufferView":5,
			"componentType":5123,
			"count":1959,
			"type":"SCALAR"
		},
		{
			"bufferView":6,
			"componentType":5126,
			"count":3620,
			"max":[
				0.014996361918747425,
				0.011804908514022827,
				0.0837850347161293
			],
			"min":[
				-0.005454221740365028,
				-0.011780966073274612,
				0.005243046209216118
			],
			"type":"VEC3"
		},
		{
			"bufferView":7,
			"componentType":5126,
			"count":3620,
			"type":"VEC3"
		},
		{
			"bufferView":8,
			"componentType":5123,
			"count":10809,
			"type":"SCALAR"
		}
	],
	"bufferViews":[
		{
			"buffer":0,
			"byteLength":310056,
			"byteOffset":0,
			"target":34962
		},
		{
			"buffer":0,
			"byteLength":310056,
			"byteOffset":310056,
			"target":34962
		},
		{
			"buffer":0,
			"byteLength":145488,
			"byteOffset":620112,
			"target":34963
		},
		{
			"buffer":0,
			"byteLength":8028,
			"byteOffset":765600,
			"target":34962
		},
		{
			"buffer":0,
			"byteLength":8028,
			"byteOffset":773628,
			"target":34962
		},
		{
			"buffer":0,
			"byteLength":3918,
			"byteOffset":781656,
			"target":34963
		},
		{
			"buffer":0,
			"byteLength":43440,
			"byteOffset":785576,
			"target":34962
		},
		{
			"buffer":0,
			"byteLength":43440,
			"byteOffset":829016,
			"target":34962
		},
		{
			"buffer":0,
			"byteLength":21618,
			"byteOffset":872456,
			"target":34963
		}
	],
	"buffers":[
		{
			"byteLength":894076,
			"uri":"Gen3Lite_j5_2.bin"
		}
	]
}
