{
	"asset":{
		"generator":"Khronos glTF Blender I/O v4.1.63",
		"version":"2.0"
	},
	"scene":0,
	"scenes":[
		{
			"name":"Scene",
			"nodes":[
				2
			]
		}
	],
	"nodes":[
		{
			"mesh":0,
			"name":"Fusion",
			"rotation":[
				-1,
				0,
				0,
				4.371138828673793e-08
			],
			"translation":[
				0,
				-0.0010499999625608325,
				-0.008299999870359898
			]
		},
		{
			"children":[
				0
			],
			"name":"GRIPPER_MODEL_LITE019"
		},
		{
			"children":[
				1
			],
			"name":"KinovaGen3Lite"
		}
	],
	"materials":[
		{
			"doubleSided":true,
			"name":"mat_0",
			"pbrMetallicRoughness":{
				"baseColorFactor":[
					0.5906188488006592,
					0.6375969052314758,
					0.8549926280975342,
					1
				],
				"metallicFactor":0.5,
				"roughnessFactor":0.5
			}
		},
		{
			"doubleSided":true,
			"name":"mat_1",
			"pbrMetallicRoughness":{
				"baseColorFactor":[
					0.68668532371521,
					0.7011018991470337,
					0.693871796131134,
					1
				],
				"metallicFactor":0.5,
				"roughnessFactor":0.5
			}
		},
		{
			"doubleSided":true,
			"name":"mat_2",
			"pbrMetallicRoughness":{
				"baseColorFactor":[
					0,
					0,
					0.2158605307340622,
					1
				],
				"metallicFactor":0.5,
				"roughnessFactor":0.5
			}
		}
	],
	"meshes":[
		{
			"name":"Fusion",
			"primitives":[
				{
					"attributes":{
						"POSITION":0,
						"NORMAL":1
					},
					"indices":2,
					"material":0
				},
				{
					"attributes":{
						"POSITION":3,
						"NORMAL":4
					},
					"indices":5,
					"material":1
				},
				{
					"attributes":{
						"POSITION":6,
						"NORMAL":7
					},
					"indices":8,
					"material":2
				}
			]
		}
	],
	"accessors":[
		{
			"bufferView":0,
			"componentType":5126,
			"count":25442,
			"max":[
				0.012054395861923695,
				0.010413914918899536,
				0.02966543845832348
			],
			"min":[
				-0.012045602314174175,
				-0.08493286371231079,
				-0.014307307079434395
			],
			"type":"VEC3"
		},
		{
			"bufferView":1,
			"componentType":5126,
			"count":25442,
			"type":"VEC3"
		},
		{
			"bufferView":2,
			"componentType":5123,
			"count":72744,
			"type":"SCALAR"
		},
		{
			"bufferView":3,
			"componentType":5126,
			"count":664,
			"max":[
				0.011788608506321907,
				0.0064691901206970215,
				0.029235808178782463
			],
			"min":[
				-0.011812550947070122,
				-0.07264900207519531,
				-0.013327347114682198
			],
			"type":"VEC3"
		},
		{
			"bufferView":4,
			"componentType":5126,
			"count":664,
			"type":"VEC3"
		},
		{
			"bufferView":5,
			"componentType":5123,
			"count":1959,
			"type":"SCALAR"
		},
		{
			"bufferView":6,
			"componentType":5126,
			"count":3531,
			"max":[
				0.011780964210629463,
				-0.006610823795199394,
				0.017860185354948044
			],
			"min":[
				-0.011804910376667976,
				-0.08214578032493591,
				-0.010277317836880684
			],
			"type":"VEC3"
		},
		{
			"bufferView":7,
			"componentType":5126,
			"count":3531,
			"type":"VEC3"
		},
		{
			"bufferView":8,
			"componentType":5123,
			"count":10809,
			"type":"SCALAR"
		}
	],
	"bufferViews":[
		{
			"buffer":0,
			"byteLength":305304,
			"byteOffset":0,
			"target":34962
		},
		{
			"buffer":0,
			"byteLength":305304,
			"byteOffset":305304,
			"target":34962
		},
		{
			"buffer":0,
			"byteLength":145488,
			"byteOffset":610608,
			"target":34963
		},
		{
			"buffer":0,
			"byteLength":7968,
			"byteOffset":756096,
			"target":34962
		},
		{
			"buffer":0,
			"byteLength":7968,
			"byteOffset":764064,
			"target":34962
		},
		{
			"buffer":0,
			"byteLength":3918,
			"byteOffset":772032,
			"target":34963
		},
		{
			"buffer":0,
			"byteLength":42372,
			"byteOffset":775952,
			"target":34962
		},
		{
			"buffer":0,
			"byteLength":42372,
			"byteOffset":818324,
			"target":34962
		},
		{
			"buffer":0,
			"byteLength":21618,
			"byteOffset":860696,
			"target":34963
		}
	],
	"buffers":[
		{
			"byteLength":882316,
			"uri":"Gen3Lite_j5_2.bin"
		}
	]
}
