{
	"asset":{
		"generator":"Khronos glTF Blender I/O v4.1.63",
		"version":"2.0"
	},
	"scene":0,
	"scenes":[
		{
			"name":"Scene",
			"nodes":[
				0
			]
		}
	],
	"nodes":[
		{
			"mesh":0,
			"name":"Fusion"
		}
	],
	"materials":[
		{
			"doubleSided":true,
			"name":"mat_0",
			"pbrMetallicRoughness":{
				"baseColorFactor":[
					0.5906188488006592,
					0.6375969052314758,
					0.8549926280975342,
					1
				],
				"metallicFactor":0.5,
				"roughnessFactor":0.5
			}
		},
		{
			"doubleSided":true,
			"name":"mat_1",
			"pbrMetallicRoughness":{
				"baseColorFactor":[
					0.68668532371521,
					0.7011018991470337,
					0.693871796131134,
					1
				],
				"metallicFactor":0.5,
				"roughnessFactor":0.5
			}
		},
		{
			"doubleSided":true,
			"name":"mat_2",
			"pbrMetallicRoughness":{
				"baseColorFactor":[
					0,
					0,
					0.2158605307340622,
					1
				],
				"metallicFactor":0.5,
				"roughnessFactor":0.5
			}
		}
	],
	"meshes":[
		{
			"name":"Fusion",
			"primitives":[
				{
					"attributes":{
						"POSITION":0,
						"NORMAL":1
					},
					"indices":2,
					"material":0
				},
				{
					"attributes":{
						"POSITION":3,
						"NORMAL":4
					},
					"indices":5,
					"material":1
				},
				{
					"attributes":{
						"POSITION":6,
						"NORMAL":7
					},
					"indices":8,
					"material":2
				}
			]
		}
	],
	"accessors":[
		{
			"bufferView":0,
			"componentType":5126,
			"count":26098,
			"max":[
				0.007545720785856247,
				0.012054395861923695,
				0.08583219349384308
			],
			"min":[
				-0.026874907314777374,
				-0.012045602314174175,
				-0.0062274388037621975
			],
			"type":"VEC3"
		},
		{
			"bufferView":1,
			"componentType":5126,
			"count":26098,
			"type":"VEC3"
		},
		{
			"bufferView":2,
			"componentType":5123,
			"count":72744,
			"type":"SCALAR"
		},
		{
			"bufferView":3,
			"componentType":5126,
			"count":676,
			"max":[
				0.005454719066619873,
				0.011788607574999332,
				0.07592520117759705
			],
			"min":[
				-0.025629300624132156,
				-0.011812551878392696,
				-0.005000618752092123
			],
			"type":"VEC3"
		},
		{
			"bufferView":4,
			"componentType":5126,
			"count":676,
			"type":"VEC3"
		},
		{
			"bufferView":5,
			"componentType":5123,
			"count":1959,
			"type":"SCALAR"
		},
		{
			"bufferView":6,
			"componentType":5126,
			"count":3697,
			"max":[
				0.005454215221107006,
				0.011780963279306889,
				0.0837850347161293
			],
			"min":[
				-0.014996367506682873,
				-0.011804911307990551,
				0.005243046674877405
			],
			"type":"VEC3"
		},
		{
			"bufferView":7,
			"componentType":5126,
			"count":3697,
			"type":"VEC3"
		},
		{
			"bufferView":8,
			"componentType":5123,
			"count":10809,
			"type":"SCALAR"
		}
	],
	"bufferViews":[
		{
			"buffer":0,
			"byteLength":313176,
			"byteOffset":0,
			"target":34962
		},
		{
			"buffer":0,
			"byteLength":313176,
			"byteOffset":313176,
			"target":34962
		},
		{
			"buffer":0,
			"byteLength":145488,
			"byteOffset":626352,
			"target":34963
		},
		{
			"buffer":0,
			"byteLength":8112,
			"byteOffset":771840,
			"target":34962
		},
		{
			"buffer":0,
			"byteLength":8112,
			"byteOffset":779952,
			"target":34962
		},
		{
			"buffer":0,
			"byteLength":3918,
			"byteOffset":788064,
			"target":34963
		},
		{
			"buffer":0,
			"byteLength":44364,
			"byteOffset":791984,
			"target":34962
		},
		{
			"buffer":0,
			"byteLength":44364,
			"byteOffset":836348,
			"target":34962
		},
		{
			"buffer":0,
			"byteLength":21618,
			"byteOffset":880712,
			"target":34963
		}
	],
	"buffers":[
		{
			"byteLength":902332,
			"uri":"Gen3Lite_j5_1.bin"
		}
	]
}
