{
	"asset":{
		"generator":"Khronos glTF Blender I/O v4.1.63",
		"version":"2.0"
	},
	"scene":0,
	"scenes":[
		{
			"name":"Scene",
			"nodes":[
				0
			]
		}
	],
	"nodes":[
		{
			"mesh":0,
			"name":"LOWER_WRIST_LITE"
		}
	],
	"materials":[
		{
			"doubleSided":true,
			"name":"mat_0",
			"pbrMetallicRoughness":{
				"baseColorFactor":[
					0.7011018991470337,
					0.68668532371521,
					0.693871796131134,
					1
				],
				"metallicFactor":0.5,
				"roughnessFactor":0.5
			}
		}
	],
	"meshes":[
		{
			"name":"LOWER_WRIST_LITE",
			"primitives":[
				{
					"attributes":{
						"POSITION":0,
						"NORMAL":1
					},
					"indices":2,
					"material":0
				}
			]
		}
	],
	"accessors":[
		{
			"bufferView":0,
			"componentType":5126,
			"count":1639,
			"max":[
				0.032769542187452316,
				0.03275534510612488,
				0.03273031860589981
			],
			"min":[
				-0.032729148864746094,
				-0.10499957203865051,
				-0.032747842371463776
			],
			"type":"VEC3"
		},
		{
			"bufferView":1,
			"componentType":5126,
			"count":1639,
			"type":"VEC3"
		},
		{
			"bufferView":2,
			"componentType":5123,
			"count":7236,
			"type":"SCALAR"
		}
	],
	"bufferViews":[
		{
			"buffer":0,
			"byteLength":19668,
			"byteOffset":0,
			"target":34962
		},
		{
			"buffer":0,
			"byteLength":19668,
			"byteOffset":19668,
			"target":34962
		},
		{
			"buffer":0,
			"byteLength":14472,
			"byteOffset":39336,
			"target":34963
		}
	],
	"buffers":[
		{
			"byteLength":53808,
			"uri":"Gen3Lite_j3.bin"
		}
	]
}
