{
	"asset":{
		"generator":"Khronos glTF Blender I/O v4.1.63",
		"version":"2.0"
	},
	"scene":0,
	"scenes":[
		{
			"name":"Scene",
			"nodes":[
				0,
				2
			]
		}
	],
	"nodes":[
		{
			"mesh":0,
			"name":"FOREARM_LITE",
			"translation":[
				-0.016071291640400887,
				0.07659998536109924,
				0.00015149812679737806
			]
		},
		{
			"name":"ARM_LITE005"
		},
		{
			"children":[
				1
			],
			"name":"KinovaGen3Lite"
		}
	],
	"materials":[
		{
			"doubleSided":true,
			"name":"mat_0",
			"pbrMetallicRoughness":{
				"baseColorFactor":[
					0.7011018991470337,
					0.68668532371521,
					0.693871796131134,
					1
				],
				"metallicFactor":0.5,
				"roughnessFactor":0.5
			}
		},
		{
			"doubleSided":true,
			"name":"mat_1",
			"pbrMetallicRoughness":{
				"baseColorFactor":[
					0,
					0,
					0.2158605307340622,
					1
				],
				"metallicFactor":0.5,
				"roughnessFactor":0.5
			}
		},
		{
			"doubleSided":true,
			"name":"mat_2",
			"pbrMetallicRoughness":{
				"baseColorFactor":[
					0.5906188488006592,
					0.6375969052314758,
					0.8549926280975342,
					1
				],
				"metallicFactor":0.5,
				"roughnessFactor":0.5
			}
		},
		{
			"doubleSided":true,
			"name":"mat_3",
			"pbrMetallicRoughness":{
				"metallicFactor":0.5,
				"roughnessFactor":0.5
			}
		}
	],
	"meshes":[
		{
			"name":"FOREARM_LITE",
			"primitives":[
				{
					"attributes":{
						"POSITION":0,
						"NORMAL":1
					},
					"indices":2,
					"material":0
				},
				{
					"attributes":{
						"POSITION":3,
						"NORMAL":4
					},
					"indices":5,
					"material":1
				},
				{
					"attributes":{
						"POSITION":6,
						"NORMAL":7
					},
					"indices":8,
					"material":2
				},
				{
					"attributes":{
						"POSITION":9,
						"NORMAL":10
					},
					"indices":11,
					"material":3
				}
			]
		}
	],
	"accessors":[
		{
			"bufferView":0,
			"componentType":5126,
			"count":3132,
			"max":[
				0.05882030725479126,
				0.06340020895004272,
				0.03999074921011925
			],
			"min":[
				-0.007304780185222626,
				-0.116098552942276,
				-0.040268972516059875
			],
			"type":"VEC3"
		},
		{
			"bufferView":1,
			"componentType":5126,
			"count":3132,
			"type":"VEC3"
		},
		{
			"bufferView":2,
			"componentType":5123,
			"count":10704,
			"type":"SCALAR"
		},
		{
			"bufferView":3,
			"componentType":5126,
			"count":4300,
			"max":[
				-0.006683317944407463,
				0.05312246084213257,
				0.006259038113057613
			],
			"min":[
				-0.008954362943768501,
				-0.04001879692077637,
				-0.006603028625249863
			],
			"type":"VEC3"
		},
		{
			"bufferView":4,
			"componentType":5126,
			"count":4300,
			"type":"VEC3"
		},
		{
			"bufferView":5,
			"componentType":5123,
			"count":13599,
			"type":"SCALAR"
		},
		{
			"bufferView":6,
			"componentType":5126,
			"count":737,
			"max":[
				-0.006284680217504501,
				0.05262261629104614,
				0.005993028171360493
			],
			"min":[
				-0.007299283519387245,
				-0.03951805830001831,
				-0.006061919964849949
			],
			"type":"VEC3"
		},
		{
			"bufferView":7,
			"componentType":5126,
			"count":737,
			"type":"VEC3"
		},
		{
			"bufferView":8,
			"componentType":5123,
			"count":1950,
			"type":"SCALAR"
		},
		{
			"bufferView":9,
			"componentType":5126,
			"count":29,
			"max":[
				-0.006304489448666573,
				0.036604225635528564,
				0.0057469024322927
			],
			"min":[
				-0.007139580324292183,
				0.033796846866607666,
				0.003123910166323185
			],
			"type":"VEC3"
		},
		{
			"bufferView":10,
			"componentType":5126,
			"count":29,
			"type":"VEC3"
		},
		{
			"bufferView":11,
			"componentType":5123,
			"count":81,
			"type":"SCALAR"
		}
	],
	"bufferViews":[
		{
			"buffer":0,
			"byteLength":37584,
			"byteOffset":0,
			"target":34962
		},
		{
			"buffer":0,
			"byteLength":37584,
			"byteOffset":37584,
			"target":34962
		},
		{
			"buffer":0,
			"byteLength":21408,
			"byteOffset":75168,
			"target":34963
		},
		{
			"buffer":0,
			"byteLength":51600,
			"byteOffset":96576,
			"target":34962
		},
		{
			"buffer":0,
			"byteLength":51600,
			"byteOffset":148176,
			"target":34962
		},
		{
			"buffer":0,
			"byteLength":27198,
			"byteOffset":199776,
			"target":34963
		},
		{
			"buffer":0,
			"byteLength":8844,
			"byteOffset":226976,
			"target":34962
		},
		{
			"buffer":0,
			"byteLength":8844,
			"byteOffset":235820,
			"target":34962
		},
		{
			"buffer":0,
			"byteLength":3900,
			"byteOffset":244664,
			"target":34963
		},
		{
			"buffer":0,
			"byteLength":348,
			"byteOffset":248564,
			"target":34962
		},
		{
			"buffer":0,
			"byteLength":348,
			"byteOffset":248912,
			"target":34962
		},
		{
			"buffer":0,
			"byteLength":162,
			"byteOffset":249260,
			"target":34963
		}
	],
	"buffers":[
		{
			"byteLength":249424,
			"uri":"Gen3Lite_j2.bin"
		}
	]
}
