{
	"asset":{
		"generator":"Khronos glTF Blender I/O v4.1.63",
		"version":"2.0"
	},
	"scene":0,
	"scenes":[
		{
			"name":"Scene",
			"nodes":[
				2
			]
		}
	],
	"nodes":[
		{
			"mesh":0,
			"name":"ARM_LITE"
		},
		{
			"children":[
				0
			],
			"name":"ARM_LITE005"
		},
		{
			"children":[
				1
			],
			"name":"KinovaGen3Lite"
		}
	],
	"materials":[
		{
			"doubleSided":true,
			"name":"mat_8",
			"pbrMetallicRoughness":{
				"baseColorFactor":[
					0.6038273572921753,
					0.6038273572921753,
					0.6038273572921753,
					1
				],
				"metallicFactor":0.5,
				"roughnessFactor":0.5
			}
		},
		{
			"doubleSided":true,
			"name":"mat_7",
			"pbrMetallicRoughness":{
				"baseColorFactor":[
					0,
					0,
					0.2158605307340622,
					1
				],
				"metallicFactor":0.5,
				"roughnessFactor":0.5
			}
		}
	],
	"meshes":[
		{
			"name":"ARM_LITE",
			"primitives":[
				{
					"attributes":{
						"POSITION":0,
						"NORMAL":1
					},
					"indices":2,
					"material":0
				},
				{
					"attributes":{
						"POSITION":3,
						"NORMAL":4
					},
					"indices":5,
					"material":1
				}
			]
		}
	],
	"accessors":[
		{
			"bufferView":0,
			"componentType":5126,
			"count":2483,
			"max":[
				0.08472990244626999,
				0.31949952244758606,
				0.03944111987948418
			],
			"min":[
				0.029963193461298943,
				-0.03949805349111557,
				-0.039380110800266266
			],
			"type":"VEC3"
		},
		{
			"bufferView":1,
			"componentType":5126,
			"count":2483,
			"type":"VEC3"
		},
		{
			"bufferView":2,
			"componentType":5123,
			"count":7311,
			"type":"SCALAR"
		},
		{
			"bufferView":3,
			"componentType":5126,
			"count":1328,
			"max":[
				0.0867169126868248,
				0.24363291263580322,
				0.006410297472029924
			],
			"min":[
				0.0834692046046257,
				0.15037167072296143,
				-0.006420722231268883
			],
			"type":"VEC3"
		},
		{
			"bufferView":4,
			"componentType":5126,
			"count":1328,
			"type":"VEC3"
		},
		{
			"bufferView":5,
			"componentType":5123,
			"count":3321,
			"type":"SCALAR"
		}
	],
	"bufferViews":[
		{
			"buffer":0,
			"byteLength":29796,
			"byteOffset":0,
			"target":34962
		},
		{
			"buffer":0,
			"byteLength":29796,
			"byteOffset":29796,
			"target":34962
		},
		{
			"buffer":0,
			"byteLength":14622,
			"byteOffset":59592,
			"target":34963
		},
		{
			"buffer":0,
			"byteLength":15936,
			"byteOffset":74216,
			"target":34962
		},
		{
			"buffer":0,
			"byteLength":15936,
			"byteOffset":90152,
			"target":34962
		},
		{
			"buffer":0,
			"byteLength":6642,
			"byteOffset":106088,
			"target":34963
		}
	],
	"buffers":[
		{
			"byteLength":112732,
			"uri":"Gen3Lite_j1.bin"
		}
	]
}
